<svg xmlns="http://www.w3.org/2000/svg" viewBox="0 0 688.8 594.62"><defs><style>.cls-1{fill:#6c8726;fill-rule:evenodd;}</style></defs><title>FINAL LOGO</title><g id="Layer_2" data-name="Layer 2"><path class="cls-1" d="M424.76,151.68c106.46-11.53,215.42-13.35,326.44-7.14,50,2.79-334.33,28-324,57.43,9.26,26.4,4.19,54.9-12.83,85.14a240.63,240.63,0,0,0-119.31-31.27c-55.57,0-106.56,18.52-146.51,49.38,7-50.77,33.58-104.41,96.8-129,40.49-54,99.55-63.9,179.41-24.55ZM370.12,353.55l-.36-.14.77-1-.41,1.09Zm-74.39-12.73q-1.44,0-2.88.09l1.32-8.76,1.56,8.67Zm-74,16.9-1.65.77-2-5,3.69,4.26ZM335.43,176.21c11.41,0,20.66-3.18,20.66-7.1s-9.25-7.1-20.66-7.1-20.65,3.18-20.65,7.1S324,176.21,335.43,176.21Z" transform="translate(-66.89 -127.77)"/><path class="cls-1" d="M298.88,272.37c128.13,0,232,98.42,232,219.84S427,712,298.88,712s-232-98.42-232-219.83,103.86-219.84,232-219.84ZM413.29,454.74c-.67-1.68-6.29-1-12.55,1.44S390,462,390.62,463.73s6.28,1,12.54-1.44,10.79-5.86,10.13-7.55Zm-24.48-27.9c-1.12-1.43-6.32.79-11.61,5s-8.68,8.69-7.56,10.11,6.32-.79,11.61-4.95,8.68-8.68,7.56-10.11Zm23.78,59c-.17-1.81-5.74-2.77-12.44-2.15s-12,2.58-11.84,4.38,5.73,2.77,12.44,2.15,12-2.58,11.84-4.38Zm-35.47,92.57c1.32-1.25-1.38-6.22-6-11.1s-9.46-7.82-10.77-6.57,1.38,6.21,6,11.09,9.47,7.83,10.78,6.58Zm21.82-30.06c.9-1.57-3.1-5.57-8.93-8.93s-11.3-4.81-12.21-3.23,3.1,5.56,8.93,8.92,11.3,4.81,12.21,3.24ZM319.45,616c1.79-.29,2.37-5.91,1.31-12.56s-3.38-11.81-5.17-11.52-2.38,5.91-1.31,12.56,3.38,11.8,5.17,11.52ZM352,591.64c1.64-.78.6-6.34-2.31-12.41s-6.6-10.35-8.24-9.57-.59,6.34,2.32,12.41,6.6,10.36,8.23,9.57Zm-101.18,11c1.68.69,5.12-3.78,7.7-10s3.32-11.83,1.64-12.52-5.12,3.78-7.7,10-3.31,11.82-1.64,12.52Zm38.65-.31c1.8.19,3.83-5.09,4.54-11.78s-.19-12.28-2-12.47-3.84,5.09-4.54,11.78.19,12.28,2,12.47Zm-87.24-49.4c1.1,1.45,6.33-.68,11.69-4.75s8.83-8.54,7.73-10-6.33.69-11.69,4.76-8.83,8.54-7.73,10Zm28.27,26.61c1.46,1.07,5.87-2.46,9.85-7.89s6-10.7,4.57-11.77-5.88,2.46-9.86,7.89-6,10.7-4.56,11.77Zm-49.16-90.4c.17,1.81,5.75,2.74,12.45,2.09s12-2.65,11.81-4.45-5.75-2.74-12.45-2.09-12,2.65-11.81,4.45Zm10.05,40.45c.68,1.68,6.29,1,12.53-1.55s10.74-5.94,10.06-7.62-6.29-1-12.53,1.54-10.74,5.95-10.06,7.63Zm13.76-99.94c-.88,1.59,3.19,5.51,9.08,8.76s11.39,4.61,12.26,3-3.19-5.51-9.09-8.76-11.38-4.61-12.25-3ZM185.66,466c-.38,1.77,4.64,4.38,11.21,5.81s12.23,1.18,12.61-.6-4.63-4.37-11.2-5.81-12.23-1.17-12.62.6Zm68.15-75.6c-1.64.8-.57,6.35,2.38,12.4s6.65,10.32,8.28,9.53.57-6.35-2.38-12.4-6.65-10.32-8.28-9.53ZM217.6,410.51c-1.34,1.22,1.26,6.24,5.81,11.21s9.32,8,10.66,6.77-1.27-6.24-5.82-11.21-9.31-8-10.65-6.77Zm99-30.4c-1.8-.22-3.92,5-4.73,11.71s0,12.27,1.78,12.49,3.92-5,4.73-11.7,0-12.28-1.78-12.5Zm-41.72,2.7c-1.79.3-2.33,5.93-1.21,12.57s3.48,11.78,5.27,11.47,2.33-5.93,1.21-12.56-3.48-11.78-5.27-11.48ZM375.1,404.28c-1.43-1.11-5.93,2.31-10.05,7.64s-6.28,10.55-4.85,11.65,5.94-2.31,10.05-7.64,6.29-10.55,4.85-11.65Zm-37.26-14.95c-1.69-.66-5,3.91-7.46,10.19s-3,11.9-1.33,12.55,5-3.91,7.46-10.19,3-11.9,1.33-12.55Zm-171,40.59,53.64,37.49,2.72,1.35a71.52,71.52,0,0,0-3.43,21.93v.25l-2.52.39-62.66,21.53,65.44-.25,3-.47a73.07,73.07,0,0,0,10,20.11L231.2,534l-39.5,53.2,53.83-37.22,2.18-2A80,80,0,0,0,267,559.38l-.64,2.36-5.73,66L287,567.83l.77-2.84a84.68,84.68,0,0,0,22.49,0l.63,2.36,28.33,59.89-7.48-65-.77-2.85a79.85,79.85,0,0,0,19.31-11.48l1.81,1.7,55.54,36.14-40.47-51.43-2.19-2.06a73,73,0,0,0,10-20.11l2.52.39,19.82-.48c-1.08.27-1.75.7-1.87,1.28-.35,1.77,4.71,4.28,11.32,5.6s12.24.94,12.6-.83-4.71-4.29-11.32-5.61c-1.38-.27-2.71-.47-4-.6l39.66-1L381.19,491.4l-3-.46v-.25a71.23,71.23,0,0,0-3.44-21.93l2.27-1.13,53.23-39.47-62.31,20-2.71,1.34a77,77,0,0,0-15.38-16.37L351.1,431l23.25-62-41.44,50.65-1.51,2.55a81.94,81.94,0,0,0-21.7-5.88V413.9L298,348.68l-9.75,64.71v2.93a81.87,81.87,0,0,0-21.69,5.88l-1.26-2.12L221.91,370l24.68,60.61,1.51,2.55a77.19,77.19,0,0,0-15.37,16.37l-2.26-1.12Z" transform="translate(-66.89 -127.77)"/><path class="cls-1" d="M558.91,674.5c-58.37,25.53-52.18,27.07-19.48-25.94-18.87,15.77-81.71,58.9-85.74,42.73,69.46-27.2,80.76-55.23,94.75-63.63L519.29,632l3.42-31.15c-67.92,103-144.89,98.15-133.87,104.74C435.38,733.41,503,729.09,558.91,674.5Z" transform="translate(-66.89 -127.77)"/></g></svg>